<svg width="201" height="30" viewBox="0 0 201 30" fill="none" xmlns="http://www.w3.org/2000/svg">
<path d="M66.5048 6.24976V24.5072H62.056V13.5571L57.9699 24.5072H54.3789L50.2659 13.5326V24.5072H45.8146V6.24976H51.0723L56.2001 18.8901L61.274 6.24976H66.5048Z" fill="#0A0A0A"/>
<path d="M70.0321 7.79549C69.537 7.3374 69.2894 6.76908 69.2894 6.09297C69.2894 5.41686 69.537 4.82404 70.0321 4.3635C70.5273 3.90541 71.1646 3.67514 71.944 3.67514C72.7235 3.67514 73.3363 3.90541 73.8314 4.3635C74.3266 4.82404 74.5741 5.39971 74.5741 6.09297C74.5741 6.78623 74.3266 7.3374 73.8314 7.79549C73.3363 8.25603 72.7088 8.48385 71.944 8.48385C71.1793 8.48385 70.5248 8.25358 70.0321 7.79549ZM74.1574 9.99285V24.5047H69.7086V9.99285H74.1574Z" fill="#0A0A0A"/>
<path d="M77.4224 13.2975C78.0376 12.1706 78.898 11.3034 79.9985 10.6959C81.0991 10.0884 82.3615 9.78464 83.7856 9.78464C85.6068 9.78464 87.129 10.2623 88.3521 11.2152C89.5752 12.1682 90.3768 13.513 90.7591 15.2474H86.0235C85.624 14.1377 84.8518 13.5816 83.7072 13.5816C82.8909 13.5816 82.2414 13.8976 81.756 14.5321C81.2707 15.1641 81.028 16.0705 81.028 17.2488C81.028 18.4271 81.2707 19.3335 81.756 19.9679C82.2414 20.5999 82.8934 20.916 83.7072 20.916C84.8518 20.916 85.624 20.3623 86.0235 19.2526H90.7591C90.3768 20.9527 89.5703 22.2878 88.3398 23.2578C87.1069 24.2304 85.5896 24.7154 83.7856 24.7154C82.3639 24.7154 81.1016 24.4116 79.9985 23.8041C78.8955 23.1966 78.0376 22.3294 77.4224 21.2026C76.8071 20.0757 76.4983 18.7578 76.4983 17.2488C76.4983 15.7398 76.8071 14.4219 77.4224 13.295V13.2975Z" fill="#0A0A0A"/>
<path d="M99.5294 10.5269C100.311 10.0688 101.177 9.83853 102.133 9.83853V14.5468H100.909C99.799 14.5468 98.9656 14.7844 98.4117 15.2621C97.8552 15.7398 97.5782 16.5751 97.5782 17.773V24.5096H93.1294V9.99776H97.5782V12.4156C98.0979 11.6194 98.7499 10.9899 99.5294 10.5293V10.5269Z" fill="#0A0A0A"/>
<path d="M107.037 23.8041C105.9 23.1966 105.008 22.3294 104.358 21.2026C103.709 20.0757 103.383 18.7578 103.383 17.2488C103.383 15.7398 103.711 14.4439 104.37 13.3097C105.03 12.1731 105.932 11.3034 107.076 10.6959C108.221 10.0884 109.506 9.78464 110.927 9.78464C112.349 9.78464 113.633 10.0884 114.778 10.6959C115.923 11.3034 116.825 12.1755 117.484 13.3097C118.143 14.4464 118.472 15.7594 118.472 17.2488C118.472 18.7382 118.139 20.0537 117.469 21.1903C116.8 22.327 115.891 23.1966 114.736 23.8041C113.582 24.4116 112.295 24.7154 110.871 24.7154C109.447 24.7154 108.17 24.4116 107.032 23.8041H107.037ZM113.05 19.9287C113.648 19.3041 113.947 18.4124 113.947 17.2488C113.947 16.0852 113.655 15.1935 113.074 14.5689C112.494 13.9442 111.778 13.6331 110.927 13.6331C110.077 13.6331 109.339 13.9417 108.768 14.5566C108.194 15.1715 107.91 16.0705 107.91 17.2488C107.91 18.4271 108.192 19.3041 108.756 19.9287C109.319 20.5534 110.025 20.8645 110.876 20.8645C111.726 20.8645 112.449 20.5534 113.05 19.9287Z" fill="#0A0A0A"/>
<path d="M139.503 6.24976V9.81403H134.662V24.5096H130.213V9.81403H125.372V6.24976H139.503Z" fill="#0A0A0A"/>
<path d="M155.352 18.3169H145.28C145.349 19.2183 145.641 19.9067 146.153 20.3844C146.665 20.8621 147.293 21.0997 148.04 21.0997C149.151 21.0997 149.923 20.6318 150.357 19.696H155.092C154.85 20.649 154.411 21.5088 153.778 22.2706C153.144 23.0349 152.352 23.6327 151.398 24.0662C150.445 24.4998 149.376 24.7154 148.197 24.7154C146.776 24.7154 145.508 24.4116 144.398 23.8041C143.287 23.1966 142.42 22.3294 141.795 21.2026C141.17 20.0757 140.858 18.7578 140.858 17.2488C140.858 15.7398 141.167 14.4219 141.782 13.295C142.398 12.1682 143.261 11.301 144.371 10.6935C145.481 10.086 146.756 9.7822 148.197 9.7822C149.638 9.7822 150.852 10.0762 151.945 10.6665C153.038 11.2569 153.894 12.0971 154.509 13.1897C155.124 14.2822 155.433 15.5561 155.433 17.0136C155.433 17.4301 155.406 17.8637 155.355 18.3144L155.352 18.3169ZM150.876 15.8451C150.876 15.0833 150.616 14.4758 150.094 14.025C149.575 13.5743 148.923 13.3489 148.143 13.3489C147.364 13.3489 146.768 13.5669 146.256 13.9981C145.744 14.4317 145.427 15.0465 145.305 15.8451H150.874H150.876Z" fill="#0A0A0A"/>
<path d="M157.813 13.2975C158.428 12.1706 159.289 11.3034 160.389 10.6959C161.49 10.0884 162.752 9.78464 164.176 9.78464C165.997 9.78464 167.52 10.2623 168.743 11.2152C169.966 12.1682 170.767 13.513 171.15 15.2474H166.414C166.015 14.1377 165.242 13.5816 164.098 13.5816C163.282 13.5816 162.632 13.8976 162.147 14.5321C161.661 15.1641 161.419 16.0705 161.419 17.2488C161.419 18.4271 161.661 19.3335 162.147 19.9679C162.632 20.5999 163.282 20.916 164.098 20.916C165.242 20.916 166.015 20.3623 166.414 19.2526H171.15C170.767 20.9527 169.961 22.2878 168.73 23.2578C167.498 24.2304 165.98 24.7154 164.176 24.7154C162.755 24.7154 161.492 24.4116 160.389 23.8041C159.286 23.1966 158.428 22.3294 157.813 21.2026C157.198 20.0757 156.889 18.7578 156.889 17.2488C156.889 15.7398 157.198 14.4219 157.813 13.295V13.2975Z" fill="#0A0A0A"/>
<path d="M186.452 11.4896C187.457 12.5919 187.962 14.1034 187.962 16.0288V24.5072H183.538V16.6266C183.538 15.6565 183.285 14.902 182.783 14.3631C182.28 13.8266 181.604 13.5571 180.753 13.5571C179.903 13.5571 179.226 13.8266 178.724 14.3631C178.221 14.902 177.969 15.654 177.969 16.6266V24.5072H173.518V5.26007H177.969V11.9452C178.42 11.3034 179.035 10.7914 179.817 10.4117C180.599 10.0296 181.474 9.83851 182.445 9.83851C184.109 9.83851 185.445 10.3897 186.452 11.4896Z" fill="#0A0A0A"/>
<path d="M191.227 24.027C190.732 23.5689 190.485 23.0006 190.485 22.3245C190.485 21.6484 190.732 21.0507 191.227 20.5828C191.722 20.1149 192.36 19.8797 193.139 19.8797C193.919 19.8797 194.531 20.1149 195.027 20.5828C195.522 21.0507 195.769 21.6312 195.769 22.3245C195.769 23.0178 195.522 23.5689 195.027 24.027C194.531 24.4876 193.904 24.7154 193.139 24.7154C192.374 24.7154 191.72 24.4851 191.227 24.027Z" fill="#0A0A0A"/>
<path d="M15.9399 16.9524L19.9819 19.2845L16.0086 21.5749L7.99571 26.1999C6.72846 26.9299 5.14746 26.0162 5.14746 24.5586V6.06115C5.14746 4.60115 6.72846 3.68742 7.99571 4.41987L16.0086 9.04241L19.9819 11.3353L15.9399 13.6674C14.6751 14.3974 14.6751 16.2224 15.9399 16.9549V16.9524Z" fill="#0A0A0A"/>
<path d="M34.8164 6.06112V24.5586C34.8164 26.0162 33.2354 26.9323 31.9681 26.1999L23.9553 21.5749L19.9819 19.2845L24.0239 16.9524C25.2887 16.2224 25.2887 14.3974 24.0239 13.6649L19.9819 11.3328L23.9553 9.03992L31.9681 4.41738C33.2354 3.68738 34.8164 4.59866 34.8164 6.05867V6.06112Z" fill="#0A0A0A"/>
</svg>
